<svg width="184" height="35" viewBox="0 0 184 35" fill="none" xmlns="http://www.w3.org/2000/svg">
<rect width="184" height="35" fill="#E5E5E5"/>
<g clip-path="url(#clip0_33:2)">
<rect width="1440" height="5740" transform="translate(-162 -32)" fill="white"/>
<rect x="-162" y="-32" width="1440" height="98" fill="#0D0E0A"/>
<path d="M0.124023 2.44526V1.51373H5.71318C10.5726 1.51373 13.0024 2.98864 13.0024 5.93848C13.0024 7.98783 11.7991 9.32302 9.3927 9.94404V10.1071C12.2649 10.5418 13.701 11.7217 13.701 13.6469C13.701 15.0441 13.0645 16.0921 11.7914 16.7907C10.5183 17.4739 8.72511 17.8154 6.41182 17.8154H0.124023V16.8839H1.52131V2.44526H0.124023ZM6.17894 10.5262H5.01453V16.8839H6.17894C7.29677 16.8839 8.2283 16.6044 8.97352 16.0455C9.71874 15.4866 10.0913 14.7103 10.0913 13.7167C10.0913 12.7076 9.71874 11.9235 8.97352 11.3646C8.2283 10.8057 7.29677 10.5262 6.17894 10.5262ZM5.68989 2.44526H5.01453V9.64129H5.68989C6.79219 9.64129 7.70043 9.31526 8.4146 8.66319C9.1443 8.01112 9.50914 7.11841 9.50914 5.98505C9.50914 4.8517 9.1443 3.98227 8.4146 3.37678C7.70043 2.75576 6.79219 2.44526 5.68989 2.44526Z" fill="#FFF68A"/>
<path d="M21.8288 12.4359C22.8379 12.3427 23.6142 11.9623 24.1576 11.2947C24.7165 10.6116 24.9959 9.92851 24.9959 9.24539C24.9959 8.54675 24.8407 8.01112 24.5302 7.63851C24.2352 7.2659 23.7772 7.0796 23.1562 7.0796C22.5507 7.0796 21.9685 7.51431 21.4096 8.38373C20.8507 9.25315 20.5712 10.4176 20.5712 11.877C20.5712 13.3363 20.8351 14.5085 21.363 15.3935C21.8909 16.2784 22.6438 16.7209 23.6219 16.7209C25.1124 16.7209 26.3777 16.1387 27.4179 14.9743L28.07 15.3935C27.5421 16.2318 26.8435 16.9072 25.974 17.4195C25.1046 17.9163 24.1265 18.1647 23.0397 18.1647C21.1922 18.1647 19.7173 17.5593 18.615 16.3483C17.5127 15.1218 16.9615 13.6468 16.9615 11.9235C16.9615 10.2002 17.5437 8.75634 18.7081 7.59193C19.8881 6.412 21.5182 5.82203 23.5986 5.82203C24.9649 5.82203 26.0361 6.14031 26.8124 6.77685C27.5887 7.41339 27.9768 8.22071 27.9768 9.19882C27.9768 10.1769 27.5421 11.0852 26.6727 11.9235C25.8188 12.7464 24.6854 13.1578 23.2726 13.1578C22.7913 13.1578 22.3256 13.1035 21.8753 12.9948L21.8288 12.4359Z" fill="#FFF68A"/>
<path d="M43.7121 6.17136V15.2304C43.7121 15.6496 43.8131 15.9834 44.0149 16.2318C44.2167 16.4647 44.5272 16.5812 44.9464 16.5812C45.3656 16.5812 45.8469 16.356 46.3903 15.9058L46.8095 16.4647C45.5674 17.5981 44.3254 18.1647 43.0834 18.1647C41.6084 18.1647 40.7002 17.4739 40.3587 16.0921C39.5513 17.4739 38.3636 18.1647 36.7956 18.1647C35.0101 18.1647 33.6517 17.5903 32.7201 16.4414C31.7886 15.277 31.3229 13.8021 31.3229 12.0167C31.3229 10.2157 31.8197 8.73305 32.8133 7.56865C33.8224 6.40424 35.2275 5.82203 37.0285 5.82203C38.4102 5.82203 39.4737 6.37319 40.2189 7.47549V6.17136H43.7121ZM35.5846 8.4536C35.1499 9.32302 34.9325 10.503 34.9325 11.9934C34.9325 13.4838 35.1499 14.6638 35.5846 15.5332C36.0193 16.4026 36.6791 16.8373 37.5641 16.8373C38.4645 16.8373 39.1477 16.4026 39.6134 15.5332C40.0947 14.6482 40.3354 13.4683 40.3354 11.9934C40.3354 10.5185 40.0947 9.34631 39.6134 8.47688C39.1477 7.59193 38.4645 7.14946 37.5641 7.14946C36.6791 7.14946 36.0193 7.58417 35.5846 8.4536Z" fill="#FFF68A"/>
<path d="M53.1895 7.24261V15.2304C53.1895 15.7117 53.337 16.0843 53.632 16.3483C53.927 16.6122 54.3384 16.7442 54.8663 16.7442C55.3941 16.7442 55.9065 16.5268 56.4033 16.0921C56.9001 15.6574 57.1485 15.0907 57.1485 14.3921V6.17136H60.6417V15.2304C60.6417 15.6496 60.7426 15.9834 60.9445 16.2318C61.1463 16.4647 61.4568 16.5812 61.876 16.5812C62.2952 16.5812 62.7765 16.356 63.3198 15.9058L63.739 16.4647C62.497 17.5981 61.2317 18.1647 59.9431 18.1647C58.6545 18.1647 57.8006 17.5903 57.3814 16.4414C56.7759 17.078 56.1471 17.5282 55.495 17.7921C54.8585 18.0405 54.0356 18.1647 53.0265 18.1647C52.0329 18.1647 51.2255 17.862 50.6045 17.2565C49.999 16.6355 49.6963 15.7971 49.6963 14.7414V6.93987C48.8424 7.15722 48.1903 7.53759 47.7401 8.08098L47.1113 7.35905C47.5615 6.89329 48.1282 6.52068 48.8113 6.24122C49.51 5.96176 50.1931 5.82203 50.8607 5.82203C51.5438 5.82203 52.1027 5.96176 52.5374 6.24122C52.9722 6.50515 53.1895 6.83895 53.1895 7.24261Z" fill="#FFF68A"/>
<path d="M64.648 7.4522V6.49739H66.5576V3.1439H70.0508V6.49739H72.6824V7.4522H70.0508V15.2304C70.0508 15.6496 70.1518 15.9834 70.3536 16.2318C70.5554 16.4647 70.8659 16.5812 71.2851 16.5812C71.7043 16.5812 72.1856 16.356 72.729 15.9058L73.1482 16.4647C71.9061 17.5981 70.6641 18.1647 69.4221 18.1647C67.5124 18.1647 66.5576 17.0236 66.5576 14.7414V7.4522H64.648Z" fill="#FFF68A"/>
<path d="M74.3784 7.35905C74.8287 6.89329 75.3954 6.52068 76.0785 6.24122C76.7771 5.96176 77.4602 5.82203 78.1278 5.82203C78.811 5.82203 79.3699 5.96176 79.8046 6.24122C80.2393 6.50515 80.4566 6.83895 80.4566 7.24261V14.2989C80.4566 14.7957 80.6119 15.1761 80.9224 15.44C81.2329 15.6884 81.621 15.8126 82.0868 15.8126C83.0804 15.8126 83.9266 15.3857 84.6252 14.5318C85.3394 13.6779 85.6965 12.5834 85.6965 11.2482C85.6965 10.503 85.549 9.71892 85.254 8.89607C84.9745 9.08238 84.6175 9.17553 84.1827 9.17553C83.748 9.17553 83.3521 9.00475 82.9951 8.66319C82.6535 8.3061 82.4827 7.87915 82.4827 7.38234C82.4827 6.88553 82.6535 6.46634 82.9951 6.12478C83.3521 5.7677 83.7946 5.58915 84.3225 5.58915C84.8503 5.58915 85.3006 5.79098 85.6732 6.19465C86.0613 6.58278 86.3408 7.10288 86.5116 7.75495C86.791 8.88831 86.9307 10.1459 86.9307 11.5276C86.9307 12.8939 86.7677 14.2679 86.4417 15.6496C86.1312 17.0314 85.712 18.2191 85.1841 19.2127C84.6718 20.2063 84.0896 21.068 83.4375 21.7977C82.1023 23.2571 80.7439 23.9868 79.3621 23.9868C78.9895 23.9868 78.679 23.9014 78.4306 23.7306C78.1977 23.5754 77.926 23.2804 77.6155 22.8457L76.4045 21.1689L77.01 20.5401C77.7552 20.6643 78.4073 20.7264 78.9662 20.7264C80.705 20.7264 82.1256 20.1753 83.2279 19.073C84.3302 17.9707 85.1997 16.1775 85.8362 13.6934C84.8736 16.3638 83.1037 17.699 80.5265 17.699C79.5329 17.699 78.6867 17.3652 77.9881 16.6976C77.305 16.0145 76.9634 15.0519 76.9634 13.8099V6.93987C76.1095 7.15722 75.4575 7.53759 75.0072 8.08098L74.3784 7.35905Z" fill="#FFF68A"/>
<path d="M100.549 18.1647C99.6016 18.1647 98.8176 17.8154 98.1966 17.1168C97.5911 16.4181 97.2883 15.4866 97.2883 14.3222C97.2883 13.1578 97.6454 12.1719 98.3596 11.3646C99.0738 10.5573 100.091 10.1536 101.41 10.1536H101.69C100.587 7.94902 100.036 6.27227 100.036 5.12339C100.036 2.48407 101.775 1.16441 105.253 1.16441C106.34 1.16441 107.364 1.41281 108.327 1.90963C109.289 2.40644 109.771 2.99641 109.771 3.67953C109.771 3.94346 109.685 4.2462 109.515 4.58776L108.397 6.73027L107.582 6.4741V4.5179C107.582 3.81925 107.341 3.2681 106.86 2.86444C106.394 2.46078 105.82 2.25895 105.136 2.25895C104.453 2.25895 103.925 2.43749 103.553 2.79458C103.196 3.13614 103.017 3.5398 103.017 4.00556C103.017 4.6421 103.343 5.61244 103.995 6.91658C104.166 7.25814 104.306 7.55312 104.415 7.80153C104.539 8.04993 104.725 8.42254 104.973 8.91936C105.222 9.40065 105.431 9.81207 105.602 10.1536H109.515V11.2016H106.115L108.234 15.5332C108.575 16.2318 109.026 16.5812 109.584 16.5812C110.143 16.5812 110.695 16.356 111.238 15.9058L111.657 16.4647C110.415 17.5981 109.095 18.1647 107.698 18.1647C106.953 18.1647 106.324 17.9784 105.812 17.6058C105.299 17.2332 104.756 16.4259 104.182 15.1839C103.949 16.0688 103.522 16.7907 102.901 17.3497C102.28 17.8931 101.496 18.1647 100.549 18.1647ZM100.898 11.9002C100.634 12.366 100.502 12.9948 100.502 13.7866C100.502 14.5784 100.619 15.2304 100.851 15.7428C101.084 16.2551 101.449 16.5113 101.946 16.5113C102.443 16.5113 102.823 16.2629 103.087 15.7661C103.367 15.2693 103.514 14.625 103.53 13.8332L102.225 11.2016H102.132C101.589 11.2016 101.177 11.4345 100.898 11.9002Z" fill="#FFF68A"/>
<path d="M120.728 17.8154V16.8839H122.126V2.44526H120.728V1.51373H126.178L132.838 14.625V2.44526H131.441V1.51373H135.866V2.44526H134.468V17.8154H130.766L123.756 4.02885V16.8839H125.153V17.8154H120.728Z" fill="#FFF68A"/>
<path d="M151.621 6.17136V15.2304C151.621 15.6496 151.722 15.9834 151.924 16.2318C152.125 16.4647 152.436 16.5812 152.855 16.5812C153.274 16.5812 153.756 16.356 154.299 15.9058L154.718 16.4647C153.476 17.5981 152.234 18.1647 150.992 18.1647C149.517 18.1647 148.609 17.4739 148.267 16.0921C147.46 17.4739 146.272 18.1647 144.704 18.1647C142.919 18.1647 141.56 17.5903 140.629 16.4414C139.697 15.277 139.232 13.8021 139.232 12.0167C139.232 10.2157 139.728 8.73305 140.722 7.56865C141.731 6.40424 143.136 5.82203 144.937 5.82203C146.319 5.82203 147.382 6.37319 148.128 7.47549V6.17136H151.621ZM143.493 8.4536C143.059 9.32302 142.841 10.503 142.841 11.9934C142.841 13.4838 143.059 14.6638 143.493 15.5332C143.928 16.4026 144.588 16.8373 145.473 16.8373C146.373 16.8373 147.056 16.4026 147.522 15.5332C148.003 14.6482 148.244 13.4683 148.244 11.9934C148.244 10.5185 148.003 9.34631 147.522 8.47688C147.056 7.59193 146.373 7.14946 145.473 7.14946C144.588 7.14946 143.928 7.58417 143.493 8.4536Z" fill="#FFF68A"/>
<path d="M158.304 3.5398C157.947 3.16719 157.768 2.72471 157.768 2.21237C157.768 1.70003 157.947 1.26532 158.304 0.908238C158.676 0.535627 159.119 0.349322 159.631 0.349322C160.143 0.349322 160.578 0.535627 160.935 0.908238C161.308 1.26532 161.494 1.70003 161.494 2.21237C161.494 2.72471 161.308 3.16719 160.935 3.5398C160.578 3.89688 160.143 4.07542 159.631 4.07542C159.119 4.07542 158.676 3.89688 158.304 3.5398ZM159.189 5.82203C160.648 5.82203 161.378 6.45081 161.378 7.70837V15.2304C161.378 15.6496 161.479 15.9834 161.68 16.2318C161.882 16.4647 162.193 16.5812 162.612 16.5812C163.031 16.5812 163.512 16.356 164.056 15.9058L164.475 16.4647C163.233 17.5981 161.991 18.1647 160.749 18.1647C158.839 18.1647 157.884 17.0236 157.884 14.7414V6.93987C157.031 7.15722 156.378 7.53759 155.928 8.08098L155.299 7.35905C155.75 6.89329 156.316 6.52068 156.999 6.24122C157.698 5.96176 158.428 5.82203 159.189 5.82203Z" fill="#FFF68A"/>
<path d="M164.485 1.53702C164.935 1.07125 165.502 0.698644 166.185 0.419187C166.883 0.139729 167.566 0 168.234 0C168.917 0 169.476 0.139729 169.911 0.419187C170.345 0.683119 170.563 1.01692 170.563 1.42058V15.2304C170.563 15.6496 170.664 15.9834 170.866 16.2318C171.067 16.4647 171.378 16.5812 171.797 16.5812C172.216 16.5812 172.698 16.356 173.241 15.9058L173.66 16.4647C172.418 17.5981 171.176 18.1647 169.934 18.1647C168.024 18.1647 167.07 17.0236 167.07 14.7414V1.11783C166.216 1.33519 165.564 1.71556 165.113 2.25895L164.485 1.53702Z" fill="#FFF68A"/>
<path d="M177.736 8.08098C177.364 7.50654 177.177 6.99421 177.177 6.54397C177.177 6.09373 177.348 5.69783 177.69 5.35627C178.047 4.99919 178.474 4.82064 178.97 4.82064C179.467 4.82064 179.886 4.99919 180.228 5.35627C180.585 5.69783 180.764 6.10926 180.764 6.59054C180.764 7.07183 180.523 7.58417 180.042 8.12756C181.315 9.05909 182.293 9.97509 182.976 10.8756C183.659 11.7605 184.001 12.793 184.001 13.9729C184.001 15.1373 183.558 16.1309 182.673 16.9538C181.788 17.7611 180.531 18.1647 178.901 18.1647C178.155 18.1647 177.402 18.0017 176.642 17.6757C175.896 17.3497 175.33 16.946 174.942 16.4647L175.477 15.9058C176.16 16.4492 176.898 16.7209 177.69 16.7209C178.481 16.7209 179.126 16.5113 179.622 16.0921C180.135 15.6574 180.391 14.9898 180.391 14.0893C180.391 12.661 179.863 11.1705 178.807 9.618L175.291 14.0195L174.709 13.5071C175.889 11.5975 176.898 9.78878 177.736 8.08098Z" fill="#FFF68A"/>
<path d="M0 34.0443V33.2167L1.10485 33.0328V25.499L0 25.3151V24.481H1.10485H2.88751L6.06648 31.7389H6.10715L9.18445 24.481H12.1601V25.3151L11.0552 25.499V33.0328L12.1601 33.2167V34.0443H8.61509V33.2167L9.78094 33.0328V30.261V26.2478L9.74704 26.2412L6.54096 33.7028H5.65301L2.33848 26.2544L2.30459 26.2609L2.35203 30.261V33.0328L3.545 33.2167V34.0443H0Z" fill="#FFF68A"/>
<path d="M23.4154 34.1823C22.7376 34.1823 22.1524 34.029 21.6599 33.7225C21.1718 33.4116 20.7945 32.9847 20.5279 32.4417C20.2613 31.8943 20.128 31.2703 20.128 30.5697V30.4252C20.128 29.7246 20.2613 29.1028 20.5279 28.5598C20.7945 28.0125 21.1718 27.5834 21.6599 27.2725C22.1524 26.9616 22.7331 26.8061 23.4019 26.8061C24.0797 26.8061 24.6626 26.9616 25.1506 27.2725C25.6432 27.5834 26.0228 28.0103 26.2894 28.5533C26.556 29.0962 26.6893 29.7202 26.6893 30.4252V30.5697C26.6893 31.2747 26.556 31.9009 26.2894 32.4483C26.0228 32.9912 25.6454 33.416 25.1574 33.7225C24.6694 34.029 24.0887 34.1823 23.4154 34.1823ZM23.4154 33.1708C23.8402 33.1708 24.1949 33.0591 24.4796 32.8358C24.7688 32.6081 24.9857 32.2994 25.1303 31.9097C25.2794 31.5156 25.354 31.0689 25.354 30.5697V30.4252C25.354 29.926 25.2794 29.4816 25.1303 29.0919C24.9857 28.6978 24.7688 28.3891 24.4796 28.1657C24.1904 27.938 23.8311 27.8242 23.4019 27.8242C22.9771 27.8242 22.6201 27.938 22.3309 28.1657C22.0417 28.3891 21.8248 28.6978 21.6802 29.0919C21.5356 29.4816 21.4633 29.926 21.4633 30.4252V30.5697C21.4633 31.0689 21.5356 31.5156 21.6802 31.9097C21.8248 32.2994 22.0417 32.6081 22.3309 32.8358C22.6246 33.0591 22.9861 33.1708 23.4154 33.1708Z" fill="#FFF68A"/>
<path d="M38.4191 34.1823C37.9401 34.1823 37.5244 34.0947 37.1719 33.9195C36.8194 33.74 36.5257 33.4773 36.2907 33.1314L36.1687 34.0443H35.0164V24.8159L33.9116 24.632V23.7979H36.3517V27.7782C36.5822 27.4629 36.8669 27.2221 37.2058 27.0557C37.5492 26.8893 37.9491 26.8061 38.4055 26.8061C39.011 26.8061 39.5262 26.9659 39.951 27.2856C40.3802 27.6009 40.7079 28.0453 40.9338 28.619C41.1642 29.1926 41.2795 29.8604 41.2795 30.6223V30.7602C41.2795 31.4433 41.1642 32.041 40.9338 32.5533C40.7079 33.0657 40.3802 33.4663 39.951 33.7553C39.5262 34.04 39.0156 34.1823 38.4191 34.1823ZM38.0802 33.1314C38.7083 33.1314 39.1737 32.9146 39.4765 32.4811C39.7838 32.0476 39.9374 31.474 39.9374 30.7602V30.6223C39.9374 30.0749 39.8696 29.5954 39.7341 29.1838C39.5985 28.7678 39.3929 28.4438 39.1172 28.2117C38.8416 27.9753 38.4914 27.857 38.0666 27.857C37.6554 27.857 37.3075 27.9534 37.0228 28.146C36.7426 28.3387 36.5189 28.5971 36.3517 28.9211V32.0607C36.5189 32.3891 36.7449 32.6497 37.0296 32.8423C37.3188 33.035 37.669 33.1314 38.0802 33.1314Z" fill="#FFF68A"/>
<path d="M49.044 34.0443V33.2167L50.1489 33.0328V27.9556L49.044 27.7717V26.9375H51.4842V33.0328L52.589 33.2167V34.0443H49.044ZM50.0811 25.1838V23.7979H51.4842V25.1838H50.0811Z" fill="#FFF68A"/>
<path d="M60.2451 34.0443V33.2167L61.35 33.0328V24.8159L60.2451 24.632V23.7979H62.6853V33.0328L63.7901 33.2167V34.0443H60.2451Z" fill="#FFF68A"/>
<path d="M74.754 34.1823C74.0762 34.1823 73.4865 34.0334 72.9849 33.7356C72.4833 33.4335 72.0947 33.0153 71.819 32.4811C71.5479 31.9469 71.4124 31.3295 71.4124 30.6288V30.3398C71.4124 29.6655 71.5547 29.0634 71.8394 28.5336C72.1286 27.9993 72.5104 27.579 72.9849 27.2725C73.4639 26.9616 73.9858 26.8061 74.5507 26.8061C75.2104 26.8061 75.7617 26.9375 76.2045 27.2002C76.6519 27.4629 76.9885 27.833 77.2145 28.3102C77.4404 28.7832 77.5534 29.3415 77.5534 29.9852V30.793H72.7951L72.7748 30.8259C72.7838 31.2813 72.8652 31.6863 73.0188 32.041C73.1769 32.3913 73.4029 32.6672 73.6966 32.8686C73.9903 33.07 74.3428 33.1708 74.754 33.1708C75.2059 33.1708 75.6013 33.1095 75.9402 32.9868C76.2836 32.8599 76.5796 32.6869 76.8281 32.468L77.3501 33.3087C77.088 33.5539 76.74 33.7619 76.3062 33.9327C75.8769 34.0991 75.3595 34.1823 74.754 34.1823ZM72.8358 29.7815H76.2181V29.6108C76.2181 29.2692 76.1548 28.9649 76.0283 28.6978C75.9063 28.4263 75.721 28.2139 75.4725 28.0607C75.2285 27.903 74.9212 27.8242 74.5507 27.8242C74.2524 27.8242 73.9813 27.9096 73.7373 28.0804C73.4933 28.2468 73.2922 28.4745 73.134 28.7635C72.9759 29.0525 72.8719 29.3809 72.8222 29.7487L72.8358 29.7815Z" fill="#FFF68A"/>
<path d="M99.2642 34.1823C98.6632 34.1823 98.0848 34.0969 97.529 33.9261C96.9732 33.7553 96.4422 33.4926 95.9361 33.1379V31.0952H96.9732L97.1969 32.5993C97.4906 32.7745 97.8092 32.9102 98.1526 33.0066C98.496 33.1029 98.8666 33.1511 99.2642 33.1511C99.7161 33.1511 100.098 33.0854 100.41 32.954C100.726 32.8183 100.968 32.6322 101.135 32.3957C101.302 32.1592 101.386 31.8834 101.386 31.5681C101.386 31.2747 101.313 31.0164 101.169 30.793C101.024 30.5697 100.785 30.3749 100.45 30.2085C100.121 30.0377 99.6687 29.8888 99.0948 29.7618C98.417 29.6086 97.8431 29.405 97.3731 29.151C96.9077 28.8926 96.5529 28.5817 96.3089 28.2183C96.0694 27.8505 95.9497 27.4301 95.9497 26.9572C95.9497 26.458 96.0853 26.0114 96.3564 25.6173C96.632 25.2232 97.0139 24.9123 97.5019 24.6846C97.9899 24.4569 98.5593 24.343 99.21 24.343C99.9014 24.343 100.511 24.4459 101.04 24.6517C101.573 24.8532 102.012 25.0984 102.355 25.3874V27.2987H101.318L101.094 25.9325C100.891 25.7749 100.638 25.6435 100.335 25.5384C100.032 25.4333 99.6574 25.3808 99.21 25.3808C98.8304 25.3808 98.496 25.4465 98.2068 25.5779C97.9176 25.7048 97.6917 25.8844 97.529 26.1164C97.3663 26.3485 97.285 26.6222 97.285 26.9375C97.285 27.2133 97.3573 27.4542 97.5019 27.66C97.651 27.8658 97.8905 28.0475 98.2204 28.2052C98.5548 28.3584 98.9999 28.5029 99.5557 28.6387C100.595 28.8883 101.381 29.2583 101.915 29.7487C102.452 30.2347 102.721 30.8368 102.721 31.555C102.721 32.0673 102.579 32.5227 102.294 32.9212C102.009 33.3153 101.607 33.624 101.088 33.8473C100.572 34.0706 99.9646 34.1823 99.2642 34.1823Z" fill="#FFF68A"/>
<path d="M113.976 34.1823C113.299 34.1823 112.709 34.0334 112.207 33.7356C111.706 33.4335 111.317 33.0153 111.041 32.4811C110.77 31.9469 110.635 31.3295 110.635 30.6288V30.3398C110.635 29.6655 110.777 29.0634 111.062 28.5336C111.351 27.9993 111.733 27.579 112.207 27.2725C112.686 26.9616 113.208 26.8061 113.773 26.8061C114.433 26.8061 114.984 26.9375 115.427 27.2002C115.874 27.4629 116.211 27.833 116.437 28.3102C116.663 28.7832 116.776 29.3415 116.776 29.9852V30.793H112.018L111.997 30.8259C112.006 31.2813 112.088 31.6863 112.241 32.041C112.399 32.3913 112.625 32.6672 112.919 32.8686C113.213 33.07 113.565 33.1708 113.976 33.1708C114.428 33.1708 114.824 33.1095 115.163 32.9868C115.506 32.8599 115.802 32.6869 116.051 32.468L116.572 33.3087C116.31 33.5539 115.962 33.7619 115.529 33.9327C115.099 34.0991 114.582 34.1823 113.976 34.1823ZM112.058 29.7815H115.441V29.6108C115.441 29.2692 115.377 28.9649 115.251 28.6978C115.129 28.4263 114.943 28.2139 114.695 28.0607C114.451 27.903 114.144 27.8242 113.773 27.8242C113.475 27.8242 113.204 27.9096 112.96 28.0804C112.716 28.2468 112.515 28.4745 112.356 28.7635C112.198 29.0525 112.094 29.3809 112.045 29.7487L112.058 29.7815Z" fill="#FFF68A"/>
<path d="M124.608 34.0443V33.2167L125.713 33.0328V27.9556L124.608 27.7717V26.9375H126.906L127.021 27.8439L127.035 27.9687C127.243 27.6053 127.498 27.3206 127.801 27.1148C128.108 26.909 128.458 26.8061 128.851 26.8061C128.991 26.8061 129.134 26.8193 129.278 26.8455C129.427 26.8674 129.534 26.8893 129.597 26.9112L129.421 28.1132L128.492 28.0607C128.14 28.0388 127.844 28.1176 127.604 28.2971C127.365 28.4723 127.179 28.7087 127.048 29.0065V33.0328L128.153 33.2167V34.0443H124.608Z" fill="#FFF68A"/>
<path d="M140.378 34.0443L137.768 27.8702L137.009 27.7717V26.9375H140.086V27.7717L139.131 27.903L140.757 31.9491L140.947 32.5205H140.988L141.205 31.9491L142.716 27.903L141.733 27.7717V26.9375H144.804V27.7717L144.031 27.8702L141.55 34.0443H140.378Z" fill="#FFF68A"/>
<path d="M152.263 34.0443V33.2167L153.368 33.0328V27.9556L152.263 27.7717V26.9375H154.704V33.0328L155.808 33.2167V34.0443H152.263ZM153.301 25.1838V23.7979H154.704V25.1838H153.301Z" fill="#FFF68A"/>
<path d="M166.847 34.1823C166.183 34.1823 165.604 34.0334 165.112 33.7356C164.619 33.4335 164.237 33.0153 163.966 32.4811C163.695 31.9469 163.559 31.3295 163.559 30.6288V30.353C163.559 29.6786 163.691 29.0744 163.953 28.5401C164.215 28.0059 164.592 27.5834 165.085 27.2725C165.577 26.9616 166.165 26.8061 166.847 26.8061C167.439 26.8061 167.956 26.9003 168.399 27.0886C168.846 27.2768 169.222 27.5352 169.524 27.8636L169.558 29.5714H168.514L168.284 28.33C168.13 28.1767 167.938 28.0541 167.708 27.9621C167.477 27.8702 167.206 27.8242 166.894 27.8242C166.497 27.8242 166.146 27.938 165.844 28.1657C165.545 28.3934 165.313 28.6978 165.146 29.0787C164.978 29.4597 164.895 29.8844 164.895 30.353V30.6288C164.895 31.1455 164.972 31.5944 165.125 31.9753C165.283 32.3563 165.507 32.6519 165.796 32.8621C166.09 33.0679 166.438 33.1708 166.84 33.1708C167.292 33.1708 167.667 33.0503 167.965 32.8095C168.264 32.5687 168.447 32.2381 168.514 31.8177H169.714L169.728 31.8571C169.705 32.2643 169.581 32.6453 169.355 33C169.129 33.3547 168.806 33.6415 168.386 33.8604C167.97 34.075 167.457 34.1823 166.847 34.1823Z" fill="#FFF68A"/>
<path d="M181.091 34.1823C180.414 34.1823 179.824 34.0334 179.322 33.7356C178.821 33.4335 178.432 33.0153 178.156 32.4811C177.885 31.9469 177.75 31.3295 177.75 30.6288V30.3398C177.75 29.6655 177.892 29.0634 178.177 28.5336C178.466 27.9993 178.848 27.579 179.322 27.2725C179.801 26.9616 180.323 26.8061 180.888 26.8061C181.548 26.8061 182.099 26.9375 182.542 27.2002C182.989 27.4629 183.326 27.833 183.552 28.3102C183.778 28.7832 183.891 29.3415 183.891 29.9852V30.793H179.133L179.112 30.8259C179.121 31.2813 179.203 31.6863 179.356 32.041C179.514 32.3913 179.74 32.6672 180.034 32.8686C180.328 33.07 180.68 33.1708 181.091 33.1708C181.543 33.1708 181.939 33.1095 182.278 32.9868C182.621 32.8599 182.917 32.6869 183.166 32.468L183.687 33.3087C183.425 33.5539 183.077 33.7619 182.644 33.9327C182.214 34.0991 181.697 34.1823 181.091 34.1823ZM179.173 29.7815H182.555V29.6108C182.555 29.2692 182.492 28.9649 182.366 28.6978C182.244 28.4263 182.058 28.2139 181.81 28.0607C181.566 27.903 181.259 27.8242 180.888 27.8242C180.59 27.8242 180.319 27.9096 180.075 28.0804C179.831 28.2468 179.63 28.4745 179.471 28.7635C179.313 29.0525 179.209 29.3809 179.16 29.7487L179.173 29.7815Z" fill="#FFF68A"/>
</g>
<defs>
<clipPath id="clip0_33:2">
<rect width="1440" height="5740" fill="white" transform="translate(-162 -32)"/>
</clipPath>
</defs>
</svg>
